<svg xmlns="http://www.w3.org/2000/svg" xmlns:xlink="http://www.w3.org/1999/xlink" version="1.1" x="0px" y="0px" viewBox="-55 147 500 625" style="enable-background:new -55 147 500 500;" xml:space="preserve"><path d="M195,456.9c-21.1,0-38.2,7.1-38.2,24.6s38.2,31.6,38.2,31.6s38.2-14.2,38.2-31.6S216.1,456.9,195,456.9z"/><path d="M347.5,175.4C307.6,157.3,252.3,147,195,147S82.4,157.3,42.5,175.4c-53.8,0.5-97.5,44.2-97.5,97.9V369  c0,50.5,38.6,92.1,88,97.3v35.9c0,36.8,18.5,68.6,49.4,85.1c9.7,5.2,20,8.4,30.5,9.9c15.4,29.6,46.4,49.8,82.1,49.8  s66.7-20.3,82.1-49.8c10.5-1.4,20.9-4.7,30.5-9.9c30.9-16.5,49.4-48.4,49.4-85.1v-35.9c49.4-5.2,88-46.8,88-97.3v-95.7  C445,219.6,401.3,175.9,347.5,175.4z M195,627c-24,0-45.2-11.7-58.4-29.6c21.9-2.5,42.9-12.6,58.4-29.1  c15.5,16.5,36.4,26.6,58.4,29.1C240.2,615.3,219,627,195,627z M424.9,369c0,39.4-29.6,72.1-67.9,77.2v-91.4c0-5.5-4.5-10-10.1-10  s-10.1,4.5-10.1,10v147.4c0,29.3-14.5,54.5-38.8,67.5c-32.2,17.3-73.9,7.2-94.8-23c0-0.1-0.1-0.1-0.1-0.2c-0.1-0.2-0.3-0.3-0.4-0.5  c-0.1-0.1-0.2-0.2-0.3-0.3c-0.1-0.1-0.2-0.3-0.4-0.4c-0.1-0.1-0.3-0.2-0.4-0.4c-0.1-0.1-0.2-0.2-0.3-0.3c-0.2-0.1-0.3-0.3-0.5-0.4  c-0.1,0-0.1-0.1-0.2-0.1c0,0-0.1,0-0.1-0.1c-0.2-0.1-0.4-0.2-0.5-0.3c-0.1-0.1-0.2-0.1-0.3-0.2c-0.2-0.1-0.3-0.2-0.5-0.2  c-0.1-0.1-0.3-0.1-0.4-0.2c-0.1-0.1-0.3-0.1-0.4-0.2c-0.2-0.1-0.4-0.1-0.5-0.2c-0.1,0-0.2-0.1-0.4-0.1c-0.2-0.1-0.4-0.1-0.6-0.1  c-0.1,0-0.2,0-0.4-0.1c-0.2,0-0.4-0.1-0.6-0.1c-0.1,0-0.3,0-0.4,0c-0.2,0-0.3,0-0.5,0s-0.3,0-0.5,0c-0.1,0-0.3,0-0.4,0  c-0.2,0-0.4,0-0.6,0.1c-0.1,0-0.2,0-0.4,0.1c-0.2,0-0.4,0.1-0.6,0.1c-0.1,0-0.2,0.1-0.4,0.1c-0.2,0.1-0.4,0.1-0.5,0.2  c-0.1,0-0.3,0.1-0.4,0.2c-0.1,0.1-0.3,0.1-0.4,0.2c-0.2,0.1-0.3,0.2-0.5,0.2c-0.1,0.1-0.2,0.1-0.3,0.2c-0.2,0.1-0.4,0.2-0.5,0.3  c0,0-0.1,0-0.1,0.1c-0.1,0-0.1,0.1-0.2,0.1c-0.2,0.1-0.3,0.2-0.5,0.4c-0.1,0.1-0.2,0.2-0.3,0.3s-0.3,0.2-0.4,0.4  c-0.1,0.1-0.3,0.3-0.4,0.4c-0.1,0.1-0.2,0.2-0.3,0.3c-0.1,0.2-0.3,0.3-0.4,0.5c0,0.1-0.1,0.1-0.1,0.2c-21,30.1-62.6,40.2-94.8,23  c-24.3-13-38.8-38.2-38.8-67.5V354.7c0-5.5-4.5-10-10.1-10s-10.1,4.5-10.1,10v91.4C-5.3,441-34.9,408.4-34.9,369v-95.7  c0-42,33.7-76.4,75.6-77.8c2.3,0.7,4.9,0.6,7.3-0.5c37.4-17.8,91-28,147-28s109.6,10.2,147,27.9c1.4,0.7,2.9,1,4.3,1  c1,0,2-0.2,3-0.5c41.9,1.4,75.6,35.8,75.6,77.8V369z"/><ellipse cx="118.5" cy="375.1" rx="33" ry="32.8"/><ellipse cx="271.5" cy="375.1" rx="33" ry="32.8"/><text x="-55" y="662" fill="#000000" font-size="5px" font-weight="bold" font-family="'Helvetica Neue', Helvetica, Arial-Unicode, Arial, Sans-serif">Created by Serhii Smirnov</text><text x="-55" y="667" fill="#000000" font-size="5px" font-weight="bold" font-family="'Helvetica Neue', Helvetica, Arial-Unicode, Arial, Sans-serif">from the Noun Project</text></svg>