<svg xmlns="http://www.w3.org/2000/svg" xmlns:xlink="http://www.w3.org/1999/xlink" version="1.1" x="0px" y="0px" viewBox="0 0 52 65" enable-background="new 0 0 52 52" xml:space="preserve"><g><path d="M21.6741123,25.7860451l2.7974987,0.9645023c0.4902935,0.1691189,1.0054417,0.2534332,1.5205917,0.2534332   c0.5151482,0,1.0302982-0.0843143,1.5201035-0.2534332l2.7979851-0.9645023l-0.6501503-1.8870926l-2.7984734,0.9645023   c-0.5594997,0.1934853-1.1769962,0.1939735-1.7394199,0l-2.7979851-0.9645023L21.6741123,25.7860451z"/><rect x="28.9861107" y="17.0611649" width="2.0284297" height="1.9962635"/><rect x="20.984972" y="17.0611649" width="2.0284297" height="1.9962635"/><path d="M44.3401833,34.0835037l-6.579483-1.318821c-1.6643639-0.525383-3.0489807-1.651207-3.9043121-3.1761856   l-0.2373466-0.4059772c-0.0110893-0.0188866-0.0231514-0.0394154-0.0345421-0.0587883   c1.3960686-1.2667332,2.5220718-2.9037457,3.2662849-4.8490181c0.6969376-0.4142628,1.8325081-1.2374306,2.5971909-2.9534569   c1.1535988-2.5898781-0.137928-3.9428139-0.561451-4.2961578c-0.4430199-0.3689384-0.987896-0.589716-1.5317993-0.6520996   c0.0994225-1.8242216,0.2397842-5.1982775,0.0560455-7.2320681c-0.4298592-3.9744945-5.267971-6.8295021-8.4100399-7.0493059   C27.6867847,2,26.8295021,2,26,2c-0.8299904,0-1.6141663,0-2.9978065,0.0911381   c-3.2546501,0.2159045-8.2565193,3.0689628-8.6888151,7.067338c-0.2368612,2.631793-0.1822758,5.0135651,0.167655,7.2359676   c-0.6681833,0.1164818-1.3041992,0.4727478-1.7438068,1.0098286c-0.4664116,0.5707092-1.1112013,1.838356-0.1856871,3.9169846   c0.7641945,1.7155399,1.9002514,2.5387058,2.5971889,2.9534569c0.7400703,1.9343681,1.8576689,3.5638256,3.2428923,4.8276348   c-0.1117897,0.2205334-0.2120667,0.4181614-0.2294884,0.4515457c-0.8528957,1.5430107-2.2448225,2.6824799-3.9233217,3.2107887   l-6.5794816,1.318821c-3.2531881,0.651123-5.614491,3.5324478-5.614491,6.8504562V50H49.955162v-9.06604   C49.955162,37.6159515,47.5938606,34.7346268,44.3401833,34.0835037z M16.9013081,23.2556248l-0.1267166-0.3582153   l-0.3328724-0.1837387c-0.5024776-0.2773132-1.4377384-0.7934361-2.0664454-2.2043705   c-0.3635769-0.815855-0.3962307-1.4699039-0.0925999-1.84128c0.1657057-0.2021961,0.4024448-0.2894974,0.5857573-0.3124638   l0.4187107,1.9134712l1.9504509-0.4269352l-0.0814514-0.3722286l0.0024967,0.0013409l-0.3829498-1.7397251l-0.0190067-0.0870552   l1.9230366-4.9032984l0.0482483-0.1637564c0.1900749-0.923564,1.0122662-1.5941839,1.9553242-1.5941839h10.6329308   c0.9430599,0,1.7652493,0.67062,1.9553242,1.5941839l1.9900513,5.1132317l-0.2710991,2.2450657l1.9816399,0.2397861   l0.2182808-1.8075905c0.1352463,0.0249157,0.2869377,0.0798054,0.422123,0.1943989   c0.4059792,0.3435955,0.4098778,1.0527172,0.0116959,1.9470387c-0.6291924,1.4119091-1.5639648,1.9270573-2.0664444,2.2038822   l-0.3328705,0.1837387l-0.1267166,0.3587036C33.336853,28.256031,29.2434406,30.037365,26,30.037365   S18.6626587,28.256031,16.9013081,23.2556248z M29.3339691,39.8627243l-1.3089504-1.7648239l2.3539925-4.0680084h-8.7580223   l2.3539314,4.0678253l-1.3091335,1.7648849l-5.7415123-6.1703339c1.2326183-0.7836914,2.2606621-1.8621769,2.9836121-3.1704578   c0.0063972-0.0116978,0.046484-0.089859,0.0972309-0.1891613C21.7569046,31.4292908,23.7997112,32.0336266,26,32.0336266   c2.1955967,0,4.2344456-0.6014729,5.9836121-1.6936665l0.1323814,0.2257137   c0.7221603,1.2882977,1.741127,2.3516159,2.9593048,3.1265335L29.3339691,39.8627243z"/></g><text x="0" y="67" fill="#000000" font-size="5px" font-weight="bold" font-family="'Helvetica Neue', Helvetica, Arial-Unicode, Arial, Sans-serif">Created by DinosoftLab</text><text x="0" y="72" fill="#000000" font-size="5px" font-weight="bold" font-family="'Helvetica Neue', Helvetica, Arial-Unicode, Arial, Sans-serif">from the Noun Project</text></svg>